<svg width="30" height="30" viewBox="0 0 30 30" fill="none" xmlns="http://www.w3.org/2000/svg">
<g clip-path="url(#clip0_29_561)">
<path d="M24.6364 10H3.36364C2.05824 10 1 11.0074 1 12.25V25.75C1 26.9926 2.05824 28 3.36364 28H24.6364C25.9418 28 27 26.9926 27 25.75V12.25C27 11.0074 25.9418 10 24.6364 10Z" stroke="#EB5757" stroke-width="2" stroke-linecap="round" stroke-linejoin="round"/>
<path d="M1 17H18" stroke="#EB5757" stroke-width="2" stroke-linecap="round" stroke-linejoin="round"/>
<mask id="path-3-outside-1_29_561" maskUnits="userSpaceOnUse" x="16.25" y="3" width="15" height="15" fill="black">
<rect fill="white" x="16.25" y="3" width="15" height="15"/>
<path fill-rule="evenodd" clip-rule="evenodd" d="M25.4375 6.4375C25.4375 5.64359 24.7939 5 24 5C23.2061 5 22.5625 5.64359 22.5625 6.4375V9.3125H19.6875C18.8936 9.3125 18.25 9.95609 18.25 10.75C18.25 11.5439 18.8936 12.1875 19.6875 12.1875H22.5625V15.0625C22.5625 15.8564 23.2061 16.5 24 16.5C24.7939 16.5 25.4375 15.8564 25.4375 15.0625V12.1875H28.3125C29.1064 12.1875 29.75 11.5439 29.75 10.75C29.75 9.95609 29.1064 9.3125 28.3125 9.3125H25.4375V6.4375Z"/>
</mask>
<path fill-rule="evenodd" clip-rule="evenodd" d="M25.4375 6.4375C25.4375 5.64359 24.7939 5 24 5C23.2061 5 22.5625 5.64359 22.5625 6.4375V9.3125H19.6875C18.8936 9.3125 18.25 9.95609 18.25 10.75C18.25 11.5439 18.8936 12.1875 19.6875 12.1875H22.5625V15.0625C22.5625 15.8564 23.2061 16.5 24 16.5C24.7939 16.5 25.4375 15.8564 25.4375 15.0625V12.1875H28.3125C29.1064 12.1875 29.75 11.5439 29.75 10.75C29.75 9.95609 29.1064 9.3125 28.3125 9.3125H25.4375V6.4375Z" fill="#EB5757"/>
<path d="M22.5625 9.3125V10.8125C23.3909 10.8125 24.0625 10.1409 24.0625 9.3125H22.5625ZM22.5625 12.1875H24.0625C24.0625 11.3591 23.3909 10.6875 22.5625 10.6875V12.1875ZM25.4375 12.1875V10.6875C24.6091 10.6875 23.9375 11.3591 23.9375 12.1875H25.4375ZM25.4375 9.3125H23.9375C23.9375 10.1409 24.6091 10.8125 25.4375 10.8125V9.3125ZM24 6.5C23.9655 6.5 23.9375 6.47202 23.9375 6.4375H26.9375C26.9375 4.81516 25.6223 3.5 24 3.5V6.5ZM24.0625 6.4375C24.0625 6.47202 24.0345 6.5 24 6.5V3.5C22.3777 3.5 21.0625 4.81516 21.0625 6.4375H24.0625ZM24.0625 9.3125V6.4375H21.0625V9.3125H24.0625ZM19.6875 10.8125H22.5625V7.8125H19.6875V10.8125ZM19.75 10.75C19.75 10.7845 19.722 10.8125 19.6875 10.8125V7.8125C18.0652 7.8125 16.75 9.12766 16.75 10.75H19.75ZM19.6875 10.6875C19.722 10.6875 19.75 10.7155 19.75 10.75H16.75C16.75 12.3723 18.0652 13.6875 19.6875 13.6875V10.6875ZM22.5625 10.6875H19.6875V13.6875H22.5625V10.6875ZM24.0625 15.0625V12.1875H21.0625V15.0625H24.0625ZM24 15C24.0345 15 24.0625 15.028 24.0625 15.0625H21.0625C21.0625 16.6848 22.3777 18 24 18V15ZM23.9375 15.0625C23.9375 15.028 23.9655 15 24 15V18C25.6223 18 26.9375 16.6848 26.9375 15.0625H23.9375ZM23.9375 12.1875V15.0625H26.9375V12.1875H23.9375ZM28.3125 10.6875H25.4375V13.6875H28.3125V10.6875ZM28.25 10.75C28.25 10.7155 28.278 10.6875 28.3125 10.6875V13.6875C29.9348 13.6875 31.25 12.3723 31.25 10.75H28.25ZM28.3125 10.8125C28.278 10.8125 28.25 10.7845 28.25 10.75H31.25C31.25 9.12766 29.9348 7.8125 28.3125 7.8125V10.8125ZM25.4375 10.8125H28.3125V7.8125H25.4375V10.8125ZM23.9375 6.4375V9.3125H26.9375V6.4375H23.9375Z" fill="#EDEFF1" mask="url(#path-3-outside-1_29_561)"/>
</g>
<defs>
<clipPath id="clip0_29_561">
<rect width="30" height="30" fill="white"/>
</clipPath>
</defs>
</svg>
