<svg width="101" height="70" viewBox="0 0 101 70" fill="none" xmlns="http://www.w3.org/2000/svg">
<path fill-rule="evenodd" clip-rule="evenodd" d="M34.8281 26.8789V22.8359C34.8281 20.626 36.6261 18.8281 38.8359 18.8281H42.8789C43.3837 18.8281 43.793 18.4189 43.793 17.9141C43.793 17.4093 43.3837 17 42.8789 17H38.8359C35.618 17 33 19.618 33 22.8359V26.8789C33 27.3837 33.4093 27.793 33.9141 27.793C34.4189 27.793 34.8281 27.3837 34.8281 26.8789ZM42.8789 51.1719C43.3837 51.1719 43.793 51.5811 43.793 52.0859C43.793 52.5907 43.3837 53 42.8789 53H38.8359C35.618 53 33 50.382 33 47.1641V43.1211C33 42.6163 33.4093 42.207 33.9141 42.207C34.4189 42.207 34.8281 42.6163 34.8281 43.1211V47.1641C34.8281 49.374 36.6261 51.1719 38.8359 51.1719H42.8789ZM69 43.1211V47.1641C69 50.382 66.382 53 63.1641 53H59.1211C58.6163 53 58.207 52.5907 58.207 52.0859C58.207 51.5811 58.6163 51.1719 59.1211 51.1719H63.1641C65.374 51.1719 67.1719 49.374 67.1719 47.1641V43.1211C67.1719 42.6163 67.5811 42.207 68.0859 42.207C68.5907 42.207 69 42.6163 69 43.1211ZM69 22.8359V26.8789C69 27.3837 68.5907 27.793 68.0859 27.793C67.5811 27.793 67.1719 27.3837 67.1719 26.8789V22.8359C67.1719 20.626 65.374 18.8281 63.1641 18.8281H59.1211C58.6163 18.8281 58.207 18.4189 58.207 17.9141C58.207 17.4093 58.6163 17 59.1211 17H63.1641C66.382 17 69 19.618 69 22.8359ZM57.308 43.6075C57.6931 43.2518 57.7169 42.6513 57.3612 42.2662C57.0055 41.8811 56.405 41.8573 56.0198 42.2129C54.6496 43.4787 52.8668 44.1758 51 44.1758C49.1331 44.1758 47.3504 43.4787 45.9801 42.2129C45.5949 41.8573 44.9945 41.8811 44.6387 42.2662C44.283 42.6513 44.3068 43.2518 44.6919 43.6075C46.414 45.1982 48.6542 46.0742 51 46.0742C53.3457 46.0742 55.5859 45.1982 57.308 43.6075ZM52.8984 30.5703V37.3203C52.8984 38.6579 51.8102 39.7461 50.4727 39.7461H49.6992C49.175 39.7461 48.75 39.3211 48.75 38.7969C48.75 38.2726 49.175 37.8477 49.6992 37.8477H50.4727C50.7634 37.8477 51 37.6111 51 37.3203V30.5703C51 30.0461 51.425 29.6211 51.9492 29.6211C52.4735 29.6211 52.8984 30.0461 52.8984 30.5703ZM59.4375 33.2246V30.5176C59.4375 30.0225 59.0361 29.6211 58.541 29.6211C58.0459 29.6211 57.6445 30.0225 57.6445 30.5176V33.2246C57.6445 33.7197 58.0459 34.1211 58.541 34.1211C59.0361 34.1211 59.4375 33.7197 59.4375 33.2246ZM42.7734 33.2246C42.7734 33.7197 43.1748 34.1211 43.6699 34.1211C44.165 34.1211 44.5664 33.7197 44.5664 33.2246V30.5176C44.5664 30.0225 44.165 29.6211 43.6699 29.6211C43.1748 29.6211 42.7734 30.0225 42.7734 30.5176V33.2246Z" fill="white"/>
</svg>
