<svg width="47" height="37" viewBox="0 0 47 37" fill="none" xmlns="http://www.w3.org/2000/svg">
<path d="M17.5684 3.29136H29.8793V25.412H17.5684V3.29136Z" fill="#FF5F00"/>
<path d="M9.2442 36.5462V34.2013C9.2442 33.3022 8.69693 32.7162 7.75888 32.7162C7.28995 32.7162 6.78184 32.8725 6.43005 33.3806C6.15659 32.9506 5.76581 32.7162 5.17956 32.7162C4.7886 32.7162 4.39799 32.8333 4.08519 33.2632V32.7943H3.26447V36.5462H4.08519V34.4748C4.08519 33.8105 4.43698 33.4977 4.98425 33.4977C5.53117 33.4977 5.80498 33.8495 5.80498 34.4748V36.5462H6.62571V34.4748C6.62571 33.8105 7.01631 33.4977 7.52441 33.4977C8.07168 33.4977 8.34514 33.8495 8.34514 34.4748V36.5462H9.2442ZM21.3986 32.7943H20.07V31.661H19.2492V32.7943H18.5067V33.5367H19.2491V35.2565C19.2491 36.1164 19.6009 36.6243 20.5389 36.6243C20.8907 36.6243 21.2813 36.5072 21.5551 36.3509L21.3205 35.6473C21.086 35.8036 20.8125 35.8427 20.6171 35.8427C20.2263 35.8427 20.07 35.6083 20.07 35.2173V33.5367H21.3986V32.7943ZM28.3554 32.716C27.8865 32.716 27.5738 32.9506 27.3784 33.2632V32.7943H26.5576V36.5462H27.3784V34.4358C27.3784 33.8105 27.6518 33.4587 28.1599 33.4587C28.3162 33.4587 28.5117 33.4979 28.668 33.5369L28.9025 32.7553C28.7462 32.7162 28.5117 32.7162 28.3554 32.7162V32.716ZM17.8423 33.1069C17.4513 32.8333 16.9042 32.7162 16.3179 32.7162C15.3801 32.7162 14.7548 33.1851 14.7548 33.9277C14.7548 34.5531 15.2238 34.9047 16.0445 35.022L16.4353 35.0612C16.8652 35.1392 17.0997 35.2565 17.0997 35.452C17.0997 35.7254 16.7871 35.9209 16.2398 35.9209C15.6927 35.9209 15.2628 35.7254 14.9891 35.5301L14.5983 36.1554C15.0283 36.468 15.6145 36.6243 16.2006 36.6243C17.295 36.6243 17.9204 36.1164 17.9204 35.4128C17.9204 34.7484 17.4123 34.3966 16.6306 34.2795L16.2398 34.2403C15.888 34.2011 15.6145 34.1231 15.6145 33.8887C15.6145 33.615 15.888 33.4587 16.3179 33.4587C16.7871 33.4587 17.256 33.654 17.4905 33.7713L17.8423 33.1069ZM39.6503 32.7162C39.1812 32.7162 38.8685 32.9506 38.6731 33.2632V32.7943H37.8523V36.5462H38.6731V34.4358C38.6731 33.8105 38.9467 33.4587 39.4546 33.4587C39.6111 33.4587 39.8066 33.4979 39.9629 33.5369L40.1974 32.7553C40.0411 32.7162 39.8066 32.7162 39.6503 32.7162ZM29.1761 34.6702C29.1761 35.8036 29.9577 36.6243 31.1694 36.6243C31.7165 36.6243 32.1072 36.5072 32.498 36.1945L32.1072 35.5301C31.7946 35.7646 31.482 35.8817 31.1302 35.8817C30.4658 35.8817 29.9969 35.4128 29.9969 34.6702C29.9969 33.9668 30.4658 33.4977 31.1302 33.4587C31.482 33.4587 31.7946 33.5759 32.1072 33.8105L32.498 33.1461C32.1072 32.8333 31.7165 32.7162 31.1694 32.7162C29.9577 32.7162 29.1761 33.5369 29.1761 34.6702ZM36.7582 34.6702V32.7943H35.9374V33.2632C35.6638 32.9116 35.273 32.7162 34.7649 32.7162C33.7097 32.7162 32.889 33.5369 32.889 34.6702C32.889 35.8036 33.7097 36.6243 34.7649 36.6243C35.312 36.6243 35.703 36.429 35.9374 36.0772V36.5462H36.7582V34.6702ZM33.7487 34.6702C33.7487 34.0058 34.1786 33.4587 34.8821 33.4587C35.5465 33.4587 36.0156 33.9668 36.0156 34.6702C36.0156 35.3346 35.5465 35.8817 34.8821 35.8817C34.1786 35.8426 33.7487 35.3346 33.7487 34.6702ZM23.9391 32.7162C22.8448 32.7162 22.063 33.4977 22.063 34.6702C22.063 35.8427 22.8446 36.6243 23.9781 36.6243C24.5252 36.6243 25.0725 36.468 25.5024 36.1164L25.1115 35.5301C24.7989 35.7646 24.4081 35.9209 24.0173 35.9209C23.5092 35.9209 23.0011 35.6864 22.8838 35.0218H25.6588V34.7094C25.6979 33.4977 24.9943 32.7162 23.939 32.7162H23.9391ZM23.9391 33.4196C24.4471 33.4196 24.799 33.7324 24.877 34.3186H22.9229C23.0011 33.8105 23.3529 33.4196 23.9391 33.4196ZM44.301 34.6702V31.3092H43.4803V33.2632C43.2066 32.9116 42.8159 32.7162 42.3078 32.7162C41.2526 32.7162 40.4318 33.5369 40.4318 34.6702C40.4318 35.8036 41.2526 36.6243 42.3078 36.6243C42.855 36.6243 43.2458 36.429 43.4803 36.0772V36.5462H44.301V34.6702ZM41.2917 34.6702C41.2917 34.0058 41.7215 33.4587 42.4251 33.4587C43.0895 33.4587 43.5584 33.9668 43.5584 34.6702C43.5584 35.3346 43.0895 35.8817 42.4251 35.8817C41.7215 35.8426 41.2917 35.3346 41.2917 34.6702ZM13.8558 34.6702V32.7943H13.035V33.2632C12.7614 32.9116 12.3706 32.7162 11.8625 32.7162C10.8073 32.7162 9.9866 33.5369 9.9866 34.6702C9.9866 35.8036 10.8073 36.6243 11.8625 36.6243C12.4098 36.6243 12.8006 36.429 13.035 36.0772V36.5462H13.8558V34.6702ZM10.8073 34.6702C10.8073 34.0058 11.2373 33.4587 11.9407 33.4587C12.6051 33.4587 13.0742 33.9668 13.0742 34.6702C13.0742 35.3346 12.6051 35.8817 11.9407 35.8817C11.2373 35.8426 10.8073 35.3346 10.8073 34.6702Z" fill="white"/>
<path d="M18.35 14.3518C18.35 9.85735 20.4603 5.87085 23.7041 3.29135C21.3202 1.41543 18.311 0.282074 15.0281 0.282074C7.25037 0.282074 0.958191 6.57426 0.958191 14.3518C0.958191 22.1291 7.25037 28.4215 15.0279 28.4215C18.3108 28.4215 21.3201 27.2881 23.7041 25.412C20.4603 22.8717 18.35 18.8462 18.35 14.3518Z" fill="#EB001B"/>
<path d="M46.489 14.3517C46.489 22.1291 40.1968 28.4214 32.4193 28.4214C29.1364 28.4214 26.1271 27.2881 23.7431 25.412C27.026 22.8327 29.0974 18.8462 29.0974 14.3517C29.0974 9.85733 26.9868 5.87084 23.7431 3.29133C26.127 1.41541 29.1364 0.282059 32.4193 0.282059C40.1968 0.282059 46.4892 6.61341 46.4892 14.3517H46.489Z" fill="#F79E1B"/>
</svg>
