<svg width="24" height="24" viewBox="0 0 24 24" fill="none" xmlns="http://www.w3.org/2000/svg">
<g clip-path="url(#clip0_14_20)">
<path d="M14.8443 6.85714C14.8443 8.4435 13.5777 9.71429 12 9.71429C10.418 9.71429 9.14286 8.43914 9.14286 6.85714C9.14286 5.27514 10.418 4 12 4C13.5777 4 14.8443 5.27078 14.8443 6.85714ZM4 17.7857C4 17.4042 4.18317 16.9963 4.66293 16.5539C5.14951 16.1051 5.87135 15.6916 6.74814 15.3407C8.50333 14.6384 10.627 14.2857 12 14.2857C13.373 14.2857 15.4967 14.6384 17.2519 15.3407C18.1287 15.6916 18.8505 16.1051 19.3371 16.5539C19.8168 16.9963 20 17.4042 20 17.7857V20H4V17.7857Z" stroke="#828282" stroke-width="2"/>
</g>
<defs>
<clipPath id="clip0_14_20">
<rect width="24" height="24" fill="white"/>
</clipPath>
</defs>
</svg>
